<svg id="visual" viewBox="0 0 960 540" width="960" height="540" xmlns="http://www.w3.org/2000/svg" xmlns:xlink="http://www.w3.org/1999/xlink" version="1.1"><rect x="0" y="0" width="960" height="540" fill="#f5c298"></rect><path d="M0 232L22.8 244.8C45.7 257.7 91.3 283.3 137 282C182.7 280.7 228.3 252.3 274 240.8C319.7 229.3 365.3 234.7 411.2 246.3C457 258 503 276 548.8 288C594.7 300 640.3 306 686 303.8C731.7 301.7 777.3 291.3 823 278C868.7 264.7 914.3 248.3 937.2 240.2L960 232L960 541L937.2 541C914.3 541 868.7 541 823 541C777.3 541 731.7 541 686 541C640.3 541 594.7 541 548.8 541C503 541 457 541 411.2 541C365.3 541 319.7 541 274 541C228.3 541 182.7 541 137 541C91.3 541 45.7 541 22.8 541L0 541Z" fill="#313132" stroke-linecap="round" stroke-linejoin="miter"></path></svg>