<svg id="visual" viewBox="0 0 960 540" width="960" height="540" xmlns="http://www.w3.org/2000/svg" xmlns:xlink="http://www.w3.org/1999/xlink" version="1.1"><rect x="0" y="0" width="960" height="540" fill="#002151"></rect><path d="M0 276L160 235L320 291L480 267L640 222L800 266L960 255L960 541L800 541L640 541L480 541L320 541L160 541L0 541Z" fill="#f8ceac"></path><path d="M0 322L160 281L320 299L480 326L640 293L800 321L960 270L960 541L800 541L640 541L480 541L320 541L160 541L0 541Z" fill="#f7c8a2"></path><path d="M0 364L160 328L320 312L480 327L640 306L800 318L960 373L960 541L800 541L640 541L480 541L320 541L160 541L0 541Z" fill="#f5c298"></path><path d="M0 390L160 351L320 413L480 380L640 360L800 374L960 367L960 541L800 541L640 541L480 541L320 541L160 541L0 541Z" fill="#f4bc8e"></path><path d="M0 444L160 419L320 421L480 430L640 435L800 397L960 413L960 541L800 541L640 541L480 541L320 541L160 541L0 541Z" fill="#f2b684"></path><path d="M0 477L160 435L320 455L480 460L640 437L800 465L960 463L960 541L800 541L640 541L480 541L320 541L160 541L0 541Z" fill="#f1b07b"></path><path d="M0 476L160 476L320 485L480 474L640 511L800 494L960 499L960 541L800 541L640 541L480 541L320 541L160 541L0 541Z" fill="#efaa71"></path></svg>