<svg id="visual" viewBox="0 0 960 540" width="960" height="540" xmlns="http://www.w3.org/2000/svg" xmlns:xlink="http://www.w3.org/1999/xlink" version="1.1"><rect x="0" y="0" width="960" height="540" fill="#f5c298"></rect><path d="M0 124L80 130C160 136 320 148 480 146.5C640 145 800 130 880 122.5L960 115L960 541L880 541C800 541 640 541 480 541C320 541 160 541 80 541L0 541Z" fill="#f9ceac"></path><path d="M0 185L80 193.5C160 202 320 219 480 227.7C640 236.3 800 236.7 880 236.8L960 237L960 541L880 541C800 541 640 541 480 541C320 541 160 541 80 541L0 541Z" fill="#ffcdcc"></path><path d="M0 322L80 311C160 300 320 278 480 265.8C640 253.7 800 251.3 880 250.2L960 249L960 541L880 541C800 541 640 541 480 541C320 541 160 541 80 541L0 541Z" fill="#f8d5eb"></path><path d="M0 404L80 395.2C160 386.3 320 368.7 480 373C640 377.3 800 403.7 880 416.8L960 430L960 541L880 541C800 541 640 541 480 541C320 541 160 541 80 541L0 541Z" fill="#e3e0f9"></path><path d="M0 415L80 414C160 413 320 411 480 423.2C640 435.3 800 461.7 880 474.8L960 488L960 541L880 541C800 541 640 541 480 541C320 541 160 541 80 541L0 541Z" fill="#d8e9f7"></path></svg>