<svg id="visual" viewBox="0 0 960 540" width="960" height="540" xmlns="http://www.w3.org/2000/svg" xmlns:xlink="http://www.w3.org/1999/xlink" version="1.1"><rect x="0" y="0" width="960" height="540" fill="#313132"></rect><path d="M0 258L32 261C64 264 128 270 192 276.8C256 283.7 320 291.3 384 288.2C448 285 512 271 576 272.2C640 273.3 704 289.7 768 294.7C832 299.7 896 293.3 928 290.2L960 287L960 541L928 541C896 541 832 541 768 541C704 541 640 541 576 541C512 541 448 541 384 541C320 541 256 541 192 541C128 541 64 541 32 541L0 541Z" fill="#002151" stroke-linecap="round" stroke-linejoin="miter"></path></svg>